<svg width="95" height="95" viewBox="0 0 95 95" fill="none" xmlns="http://www.w3.org/2000/svg">
<rect width="94.6092" height="94.6092" rx="47.3046" fill="white" fill-opacity="0.25"/>
<circle cx="47.3044" cy="47.3042" r="29.2428" fill="url(#paint0_linear_109_4044)"/>
<path d="M46.931 61.3016C47.3461 61.7167 48.0191 61.7167 48.4343 61.3016L55.1992 54.5367C55.6143 54.1216 55.6143 53.4485 55.1992 53.0334C54.784 52.6183 54.111 52.6183 53.6958 53.0334L47.6826 59.0466L41.6694 53.0334C41.2543 52.6183 40.5812 52.6183 40.1661 53.0334C39.7509 53.4485 39.7509 54.1216 40.1661 54.5367L46.931 61.3016ZM46.6196 34.0594L46.6196 60.55L48.7456 60.55L48.7456 34.0594L46.6196 34.0594Z" fill="#322B2B"/>
<defs>
<linearGradient id="paint0_linear_109_4044" x1="47.3044" y1="18.0614" x2="47.3044" y2="76.5471" gradientUnits="userSpaceOnUse">
<stop stop-color="#B4A775"/>
<stop offset="1" stop-color="#E4DAB1"/>
</linearGradient>
</defs>
</svg>
