<svg width="29" height="27" viewBox="0 0 29 27" fill="none" xmlns="http://www.w3.org/2000/svg">
<g clip-path="url(#clip0_109_4127)">
<path d="M14.9436 0H14.9366C7.22507 0 0.954102 6.04869 0.954102 13.4865C0.954102 16.4367 1.94011 19.171 3.61668 21.3913L1.87368 26.4015L7.24954 24.7443C9.46108 26.157 12.0992 26.973 14.9436 26.973C22.6551 26.973 28.9261 20.9226 28.9261 13.4865C28.9261 6.05038 22.6551 0 14.9436 0Z" fill="white"/>
<path d="M23.0819 19.0449C22.7445 19.9637 21.4053 20.7257 20.3372 20.9482C19.6064 21.0982 18.6518 21.2179 15.4386 19.9333C11.3284 18.2914 8.68158 14.264 8.47529 14.0027C8.27774 13.7414 6.81445 11.8701 6.81445 9.9348C6.81445 7.99949 7.83368 7.05712 8.24452 6.65253C8.58193 6.32042 9.13962 6.1687 9.67459 6.1687C9.84766 6.1687 10.0033 6.17713 10.1431 6.18387C10.554 6.20073 10.7602 6.22433 11.0312 6.84977C11.3686 7.63367 12.1903 9.56898 12.2882 9.76791C12.3879 9.96683 12.4875 10.2366 12.3477 10.4979C12.2165 10.7676 12.1012 10.8873 11.8949 11.1166C11.6886 11.3458 11.4928 11.5212 11.2865 11.7673C11.0977 11.9814 10.8844 12.2106 11.1221 12.6068C11.3599 12.9945 12.1816 14.2876 13.3914 15.326C14.9525 16.6662 16.2183 17.0944 16.6711 17.2765C17.0085 17.4114 17.4106 17.3793 17.6571 17.1265C17.97 16.8011 18.3564 16.2617 18.7497 15.7306C19.0295 15.3496 19.3826 15.3024 19.7532 15.4373C20.1309 15.5637 22.1291 16.5162 22.5399 16.7134C22.9508 16.9124 23.2218 17.0068 23.3214 17.1737C23.4193 17.3406 23.4193 18.1245 23.0819 19.0449Z" fill="#3F3C3C"/>
</g>
<defs>
<clipPath id="clip0_109_4127">
<rect width="27.972" height="26.973" fill="white" transform="translate(0.954102)"/>
</clipPath>
</defs>
</svg>
