<svg width="28" height="27" viewBox="0 0 28 27" fill="none" xmlns="http://www.w3.org/2000/svg">
<g clip-path="url(#clip0_105_3370)">
<path d="M14.0035 0H13.9965C6.27725 0 0 6.05475 0 13.5C0 16.4531 0.987 19.1903 2.66525 21.4127L0.9205 26.4279L6.30175 24.7691C8.5155 26.1833 11.1562 27 14.0035 27C21.7227 27 28 20.9436 28 13.5C28 6.05644 21.7227 0 14.0035 0Z" fill="#322B2B"/>
<path d="M22.15 19.0639C21.8122 19.9836 20.4717 20.7464 19.4025 20.9691C18.671 21.1193 17.7155 21.2391 14.499 19.9532C10.3847 18.3096 7.73521 14.2782 7.52871 14.0166C7.33096 13.7551 5.86621 11.8819 5.86621 9.94468C5.86621 8.00743 6.88646 7.06412 7.29771 6.65912C7.63546 6.32668 8.19371 6.1748 8.72921 6.1748C8.90246 6.1748 9.05821 6.18324 9.19821 6.18999C9.60946 6.20687 9.81596 6.23049 10.0872 6.85656C10.425 7.64124 11.2475 9.57849 11.3455 9.77762C11.4452 9.97674 11.545 10.2467 11.405 10.5083C11.2737 10.7783 11.1582 10.8981 10.9517 11.1276C10.7452 11.3571 10.5492 11.5326 10.3427 11.779C10.1537 11.9933 9.94021 12.2228 10.1782 12.6194C10.4162 13.0075 11.2387 14.3018 12.4497 15.3413C14.0125 16.6829 15.2795 17.1115 15.7327 17.2937C16.0705 17.4287 16.473 17.3967 16.7197 17.1436C17.033 16.8179 17.4197 16.2779 17.8135 15.7463C18.0935 15.3649 18.447 15.3177 18.818 15.4527C19.196 15.5792 21.1962 16.5327 21.6075 16.7301C22.0187 16.9292 22.29 17.0237 22.3897 17.1908C22.4877 17.3579 22.4877 18.1426 22.15 19.0639Z" fill="#FAFAFA"/>
</g>
<defs>
<clipPath id="clip0_105_3370">
<rect width="28" height="27" fill="white"/>
</clipPath>
</defs>
</svg>
